# xmcd
#
# Track frame offsets:
#	150
#	17952
#	31862
#	43740
#	56955
#	67017
#	81060
#	99837
#	112697
#	131045
#	142720
#	156662
#	176395
#	190372
#
# Disc length: 2801 seconds
#
# Revision: 2
# Processed by: cddbd v1.5.1PL0 Copyright (c) Steve Scherf et al.
# Submitted via: audiograbber 1.83.01
#
DISCID=ba0aef0e
DTITLE=Daniel O'Donnell - Follow Your Dream
DYEAR=1992
DGENRE=Country
TTITLE0=Follow Your Dream
TTITLE1=Welcome Home
TTITLE2=Not Until The Next Time
TTITLE3=Cryin' Time
TTITLE4=Back In My Baby's Arms Again
TTITLE5=My Claim To Fame Is You
TTITLE6=Sweet Memories
TTITLE7=I Just Want To Dance With You
TTITLE8=The Love In Your Eyes
TTITLE9=You're The Reason
TTITLE10=Belle Of The Ball
TTITLE11=Galway Bay
TTITLE12=Destination Donegal
TTITLE13=How Great Thou Art
EXTD=
EXTT0=
EXTT1=
EXTT2=
EXTT3=
EXTT4=
EXTT5=
EXTT6=
EXTT7=
EXTT8=
EXTT9=
EXTT10=
EXTT11=
EXTT12=
EXTT13=
PLAYORDER=
